#!OML:ASF Y:\EmotionMaleHayes\Project 1\Capture day 1\Session 1\Male1.ASF
:FULLY-SPECIFIED
:DEGREES
384
root -14.7671 16.3884 1.15868 279.328 104.921 279.197
lowerback 7.35146 -1.17995 -17.6302
upperback 0.637948 -2.92662 -2.31372
thorax -2.70219 -1.1955 7.64464
lowerneck -25.1288 4.30714 5.30738
upperneck 12.9631 4.43711 -2.23762
head 8.25186 2.13702 -0.9808
rclavicle 1.06598e-014 -2.14687e-014
rhumerus -50.8466 7.06682 -85.9613
rradius 35.6998
rwrist -1.90082
rhand -8.88842 -30.5897
rfingers 7.12502
rthumb 17.0538 -59.8611
lclavicle 1.06598e-014 -2.14687e-014
lhumerus -20.4525 -31.1305 88.929
lradius 48.9091
lwrist 3.64664
lhand -20.0119 -26.6037
lfingers 7.12502
lthumb 6.32836 3.28174
rfemur -25.445 -7.59974 1.32184
rtibia 9.22359
rfoot -11.5661 -2.27058
rtoes 8.29396
lfemur 20.2507 0.237076 -38.3735
ltibia 7.47515
lfoot -20.4534 -4.14799
ltoes 0.179054
385
root -14.6217 16.3653 1.1653 279.863 104.759 279.604
lowerback 7.42312 -1.20446 -17.4558
upperback 0.517247 -2.98013 -2.147
thorax -2.86136 -1.20773 7.74047
lowerneck -25.4247 4.38401 5.31445
upperneck 13.1036 4.55137 -2.38679
head 8.35574 2.17265 -1.0113
rclavicle -6.08778e-015 -2.66371e-014
rhumerus -51.0345 7.19601 -85.8919
rradius 35.5726
rwrist -1.60519
rhand -8.79257 -30.5975
rfingers 7.12502
rthumb 17.1461 -59.8609
lclavicle -6.08778e-015 -2.66371e-014
lhumerus -21.0787 -30.949 89.6184
lradius 48.5837
lwrist 3.49022
lhand -20.6216 -26.7033
lfingers 7.12502
lthumb 5.73973 3.19895
rfemur -25.7008 -6.97637 1.34754
rtibia 10.2288
rfoot -11.1553 -2.84803
rtoes 11.9945
lfemur 20.4957 -0.0381412 -38.2255
ltibia 7.80773
lfoot -20.545 -3.9393
ltoes -1.55372
386
root -14.4726 16.3461 1.17001 280.113 104.719 279.766
lowerback 7.36005 -1.28095 -17.3566
upperback 0.487298 -3.06553 -2.0576
thorax -2.8365 -1.25356 7.78717
lowerneck -25.6564 4.50068 5.43406
upperneck 13.1231 4.69243 -2.58344
head 8.41313 2.22181 -1.07329
rclavicle 1.56046e-014 -1.98785e-015
rhumerus -51.0842 7.50451 -85.933
rradius 35.4631
rwrist -1.48315
rhand -8.60219 -30.681
rfingers 7.12502
rthumb 17.3293 -59.9285
lclavicle 1.56046e-014 -1.98785e-015
lhumerus -21.7705 -30.5859 90.147
lradius 48.4424
lwrist 3.45802
lhand -21.0067 -26.6088
lfingers 7.12502
lthumb 5.36785 3.3032
rfemur -25.9017 -6.86115 1.40453
rtibia 11.3612
rfoot -10.3732 -3.58494
rtoes 12.367
lfemur 20.8294 -0.3453 -38.2876
ltibia 8.13053
lfoot -20.569 -3.87998
ltoes -1.64467
387
root -14.3187 16.3294 1.17292 280.229 104.766 279.847
lowerback 7.29241 -1.43104 -17.3588
upperback 0.556526 -3.24036 -2.04459
thorax -2.67582 -1.3571 7.80879
lowerneck -26.0152 4.72836 5.75894
upperneck 13.1037 4.89604 -2.74663
head 8.48454 2.31388 -1.14488
rclavicle -7.25564e-015 -5.40694e-014
rhumerus -50.8199 7.95785 -86.1692
rradius 35.2325
rwrist -1.28749
rhand -8.45792 -30.8985
rfingers 7.12502
rthumb 17.4682 -60.1337
lclavicle -7.25564e-015 -5.40694e-014
lhumerus -22.3958 -30.111 90.3904
lradius 48.3416
lwrist 3.45647
lhand -20.3142 -26.298
lfingers 7.12502
lthumb 6.03647 3.59598
rfemur -26.0373 -7.1416 1.43181
rtibia 12.5255
rfoot -9.19589 -4.50376
rtoes 13.65
lfemur 21.2039 -0.743803 -38.5526
ltibia 8.51058
lfoot -20.4864 -3.76603
ltoes -1.80999
388
root -14.1629 16.3149 1.1779 280.606 104.814 280.189
lowerback 7.26968 -1.39237 -17.1977
upperback 0.415661 -3.1925 -2.00274
thorax -2.83603 -1.31623 7.76596
lowerneck -25.7503 4.59497 5.41915
upperneck 12.9267 4.8194 -2.5954
head 8.36532 2.27909 -1.056
rclavicle 9.59136e-015 1.94809e-014
rhumerus -50.9961 7.70536 -85.8879
rradius 34.9969
rwrist -0.604149
rhand -7.95075 -31.1239
rfingers 7.12502
rthumb 17.9562 -60.315
lclavicle 9.59136e-015 1.94809e-014
lhumerus -23.4624 -30.1357 91.3456
lradius 47.931
lwrist 3.25775
lhand -19.9028 -26.128
lfingers 7.12502
lthumb 6.43366 3.75431
rfemur -26.1605 -7.51864 1.48266
rtibia 13.5019
rfoot -7.77753 -5.86055
rtoes 17.1058
lfemur 21.5193 -1.1521 -38.7825
ltibia 9.01397
lfoot -20.4019 -3.42081
ltoes -3.86061
389
root -14.0083 16.298 1.19348 280.039 104.067 279.636
lowerback 7.29579 -1.40625 -16.5989
upperback 0.417959 -3.17468 -1.76236
thorax -2.87113 -1.31872 7.69865
lowerneck -26.0028 4.82304 5.77154
upperneck 12.8617 5.02538 -2.78945
head 8.40594 2.37109 -1.14371
rclavicle -1.28216e-014 -6.48038e-014
rhumerus -50.7507 7.82539 -85.9576
rradius 34.4849
rwrist -0.533644
rhand -8.57453 -30.4277
rfingers 7.12502
rthumb 17.356 -59.6728
lclavicle -1.28216e-014 -6.48038e-014
lhumerus -24.176 -29.7364 91.7489
lradius 47.4386
lwrist 3.03624
lhand -20.0776 -26.1374
lfingers 7.12502
lthumb 6.2649 3.74998
rfemur -26.2466 -6.64226 2.32855
rtibia 14.001
rfoot -6.6313 -7.78071
rtoes 20.6864
lfemur 21.9617 -1.44484 -38.04
ltibia 9.29129
lfoot -20.2663 -2.81841
ltoes -5.30089
390
root -13.8567 16.3004 1.20198 280.271 104.214 279.644
lowerback 7.15797 -1.48276 -16.724
upperback 0.319129 -3.26996 -1.7288
thorax -2.86813 -1.35946 7.80594
lowerneck -26.183 4.91775 5.84191
upperneck 12.8543 5.12301 -2.82039
head 8.43876 2.41583 -1.14802
rclavicle 2.01269e-015 6.12257e-014
rhumerus -50.5084 7.81284 -85.8482
rradius 34.0631
rwrist -0.234022
rhand -8.81291 -29.8359
rfingers 7.12502
rthumb 17.1265 -59.1011
lclavicle 2.01269e-015 6.12257e-014
lhumerus -24.9256 -29.3798 92.3372
lradius 46.8743
lwrist 2.8857
lhand -20.1507 -26.2357
lfingers 7.12502
lthumb 6.19431 3.65378
rfemur -26.6014 -7.28074 2.2547
rtibia 14.8662
rfoot -5.78243 -8.3189
rtoes 23.0744
lfemur 21.9988 -1.83281 -38.4135
ltibia 9.81692
lfoot -19.9205 -2.6526
ltoes -4.56707
